<?xml version="1.0" encoding="utf-8"?>
<svg viewBox="0 0 500 500" xmlns="http://www.w3.org/2000/svg">
  <defs/>
  <rect width="500" height="500" style="fill: rgb(216, 216, 216);"/>
  <path d="M 250 300 C 263.75 300 275 311.25 275 325 C 275 338.75 263.75 350 250 350 C 236.25 350 225 338.75 225 325 C 225 311.25 236.25 300 250 300 M 287.5 225 C 301.25 225 312.5 236.25 312.5 250 C 312.5 263.75 301.25 275 287.5 275 C 273.75 275 262.5 263.75 262.5 250 C 262.5 236.25 273.75 225 287.5 225 M 175 300 C 188.75 300 200 311.25 200 325 C 200 338.75 188.75 350 175 350 C 161.25 350 150 338.75 150 325 C 150 311.25 161.25 300 175 300 M 212.5 225 C 226.25 225 237.5 236.25 237.5 250 C 237.5 263.75 226.25 275 212.5 275 C 198.75 275 187.5 263.75 187.5 250 C 187.5 236.25 198.75 225 212.5 225 M 250 150 C 263.75 150 275 161.25 275 175 C 275 188.75 263.75 200 250 200 C 236.25 200 225 188.75 225 175 C 225 161.25 236.25 150 250 150 M 325 300 C 338.75 300 350 311.25 350 325 C 350 338.75 338.75 350 325 350 C 311.25 350 300 338.75 300 325 C 300 311.25 311.25 300 325 300"/>
</svg>