<?xml version="1.0" encoding="utf-8"?>
<svg viewBox="0 0 500 500" xmlns="http://www.w3.org/2000/svg">
  <defs/>
  <rect width="500" height="500" style="fill: rgb(216, 216, 216);"/>
  <path d="M 250 291.23 C 227.227 291.23 208.763 272.769 208.763 250 C 208.763 227.23 227.227 208.769 250 208.769 C 272.774 208.769 291.238 227.23 291.238 250 C 291.238 272.769 272.774 291.23 250 291.23 M 319.073 254.123 C 316.186 252.474 313.196 251.134 310.206 250 C 313.196 248.866 316.186 247.526 319.073 245.877 C 338.866 234.538 349.898 213.923 350 192.38 C 331.547 181.763 308.041 180.939 288.145 192.38 C 285.257 194.029 282.577 195.988 280.103 197.946 C 280.618 194.751 280.928 191.452 280.928 188.154 C 280.928 165.271 268.454 145.377 250 134.657 C 231.546 145.377 219.072 165.271 219.072 188.154 C 219.072 191.452 219.382 194.751 219.897 197.946 C 217.423 195.885 214.743 193.926 211.855 192.277 C 192.062 180.835 168.557 181.66 150 192.277 C 150 213.614 161.031 234.538 180.928 245.773 C 183.814 247.423 186.804 248.762 189.794 250 C 186.804 251.03 183.814 252.37 180.928 254.02 C 161.134 265.461 150.103 286.076 150 307.516 C 168.453 318.133 191.959 318.957 211.855 307.516 C 214.743 305.867 217.423 303.908 219.897 301.95 C 219.382 305.248 219.072 308.547 219.072 311.845 C 219.072 334.728 231.546 354.622 250 365.342 C 268.454 354.622 280.928 334.728 280.928 311.845 C 280.928 308.547 280.618 305.248 280.103 302.053 C 282.577 304.114 285.257 305.97 288.145 307.62 C 307.938 319.061 331.443 318.236 350 307.62 C 349.898 286.076 338.866 265.461 319.073 254.123 Z" style=""/>
</svg>