<?xml version="1.0" encoding="utf-8"?>
<svg viewBox="16.081 203.471 464.6563 93" width="464.656" height="93" xmlns="http://www.w3.org/2000/svg">
  <defs/>
  <path d="M 28.93 276.47 L 19.21 276.68 Q 18.8 275.45 19.21 274.23 L 24.85 273.48 Q 25.12 270.01 25.12 265.46 L 25.12 225.34 L 19.62 224.66 Q 19.34 223.64 19.62 222.14 Q 23.36 222.41 28.93 222.41 Q 33.9 222.41 38.32 222.21 Q 38.73 223.43 38.32 224.66 L 32.67 225.47 Q 32.4 228.06 32.4 233.43 L 32.4 273 L 54.84 273 L 58.04 260.7 Q 59.06 260.42 60.55 260.7 L 60.49 276.47 Z M 93.59 257.3 L 72.23 257.3 Q 71.62 274.64 82.64 274.64 Q 87.33 274.64 92.23 270.49 Q 93.25 271.1 93.79 272.6 Q 89.1 277.83 81.89 277.83 Q 65.3 277.83 65.3 258.32 Q 65.3 249.07 70.19 243.93 Q 75.09 238.8 81.62 238.8 Q 88.76 238.8 91.89 243.76 Q 95.01 248.73 95.01 256.68 Q 94.33 257.23 93.59 257.3 Z M 81.48 241.52 Q 77.95 241.52 75.46 245.19 Q 72.98 248.86 72.44 254.58 L 80.87 254.58 Q 85.9 254.58 88.08 253.96 Q 88.08 248.39 86.38 244.95 Q 84.68 241.52 81.48 241.52 Z M 112.07 251.18 L 112.07 273 L 117.58 274.02 Q 117.65 274.36 117.68 274.64 Q 117.72 274.91 117.72 275.25 Q 117.72 275.59 117.68 275.96 Q 117.65 276.34 117.58 276.74 Q 113.3 276.54 108.81 276.54 Q 107.24 276.54 105.03 276.57 Q 102.82 276.61 99.97 276.68 Q 99.76 276.06 99.76 275.38 Q 99.76 274.77 99.97 274.02 L 105.34 273.28 Q 105.48 271.37 105.54 269.23 Q 105.61 267.09 105.61 264.64 L 105.61 250.16 Q 105.61 245.67 105.41 243.49 L 100.04 242.81 Q 99.9 242.47 99.9 241.66 Q 99.9 241.32 99.9 240.98 Q 99.9 240.64 100.04 240.23 Q 104.66 239.96 111.73 238.8 Q 112.34 239.48 112.41 240.16 Q 112.07 242.06 112.07 251.18 Z M 102.14 226.9 Q 102.01 226.56 102.01 226.19 Q 102.01 225.81 102.01 225.47 Q 102.01 223.64 103.54 222.51 Q 105.07 221.39 107.31 221.39 Q 109.42 221.39 110.75 222.65 Q 112.07 223.91 112.07 226.08 Q 112.07 227.85 110.54 228.94 Q 109.01 230.03 106.63 230.03 Q 105 230.03 103.74 229.21 Q 102.48 228.4 102.14 226.9 Z M 134.1 274.84 Q 137.77 274.84 139.54 273.14 Q 141.31 271.44 141.31 269.2 Q 141.31 267.9 140.9 266.82 Q 140.49 265.73 139.58 264.71 Q 138.66 263.69 137.16 262.7 Q 135.67 261.72 133.42 260.56 Q 130.63 259.13 128.63 257.84 Q 126.62 256.55 125.33 255.12 Q 124.04 253.69 123.39 252.06 Q 122.75 250.43 122.75 248.39 Q 122.75 245.94 123.63 244.14 Q 124.51 242.34 126.11 241.15 Q 127.71 239.96 129.89 239.38 Q 132.06 238.8 134.71 238.8 Q 140.02 238.8 145.05 241.38 L 145.05 250.09 L 141.85 250.09 L 140.36 242.74 Q 137.37 241.32 134.03 241.32 Q 128.46 241.32 128.46 245.87 Q 128.46 248.32 130.29 250.36 Q 132.13 252.4 136.21 254.44 Q 139 255.87 141.11 257.16 Q 143.21 258.45 144.61 259.88 Q 146 261.31 146.72 262.97 Q 147.43 264.64 147.43 266.75 Q 147.43 269.13 146.41 271.17 Q 145.39 273.21 143.55 274.67 Q 141.72 276.13 139.13 276.98 Q 136.55 277.83 133.42 277.83 Q 127.37 277.83 122.07 275.25 L 122.07 266.54 L 125.26 266.54 L 126.76 273.28 Q 130.23 274.84 134.1 274.84 Z M 157.21 232.34 Q 157.21 227.85 157.01 225.68 L 151.63 225 Q 151.36 223.98 151.63 222.41 Q 156.19 222.07 163.26 220.98 Q 163.87 221.66 163.94 222.34 Q 163.6 224.11 163.6 233.36 L 163.6 246.21 Q 168.63 239.28 175.71 239.28 Q 179.92 239.28 182.91 241.38 Q 185.91 243.49 185.91 248.59 L 185.91 273 L 191.41 274.02 Q 191.69 275.11 191.41 276.74 Q 187.13 276.54 182.71 276.54 Q 179.58 276.54 173.87 276.68 Q 173.46 275.38 173.87 274.02 L 179.24 273.28 Q 179.51 269.54 179.51 264.64 L 179.51 251.99 Q 179.51 247.23 178.32 245.12 Q 177.13 243.02 174.01 243.02 Q 171.42 243.02 168.6 244.92 Q 165.78 246.82 163.6 250.43 L 163.6 273 L 169.11 274.02 Q 169.38 275.11 169.11 276.74 Q 164.83 276.54 160.41 276.54 Q 157.28 276.54 151.57 276.68 Q 151.16 275.38 151.57 274.02 L 156.94 273.28 Q 157.21 269.54 157.21 264.64 Z M 244.99 252.2 Q 244.99 242.74 238.94 242.74 Q 233.77 242.74 229.15 249.88 L 229.15 273 L 234.65 274.02 Q 234.93 275.11 234.65 276.74 Q 230.37 276.54 225.95 276.54 Q 222.82 276.54 217.11 276.68 Q 216.7 275.38 217.11 274.02 L 222.48 273.28 Q 222.75 269.54 222.75 264.64 L 222.75 252.2 Q 222.75 242.74 216.7 242.74 Q 213.64 242.74 211.33 244.61 Q 209.02 246.48 206.57 250.43 L 206.57 273 L 212.08 274.02 Q 212.35 275.11 212.08 276.74 Q 207.79 276.54 203.37 276.54 Q 200.25 276.54 194.53 276.68 Q 194.13 275.38 194.53 274.02 L 199.91 273.28 Q 200.18 269.54 200.18 264.64 L 200.18 246.01 Q 200.18 244.65 199.97 243.49 L 194.6 242.81 Q 194.33 241.79 194.6 240.23 Q 199.16 239.89 206.23 238.8 Q 206.84 239.48 206.91 240.16 Q 206.57 241.93 206.57 246.21 Q 211.94 238.8 218.67 238.8 Q 222.21 238.8 225.13 240.6 Q 228.06 242.4 228.87 246.14 Q 234.31 238.8 240.91 238.8 Q 245.06 238.8 248.22 241.25 Q 251.38 243.7 251.38 248.8 L 251.38 273 L 256.89 274.02 Q 257.16 275.11 256.89 276.74 Q 252.61 276.54 248.19 276.54 Q 245.06 276.54 239.35 276.68 Q 238.94 275.38 239.35 274.02 L 244.72 273.28 Q 244.99 269.54 244.99 264.64 Z M 267.02 267.43 Q 267.02 270.96 268.31 272.43 Q 269.6 273.89 272.39 273.89 Q 274.43 273.89 276.91 272.63 Q 279.4 271.37 281.5 268.99 L 281.5 258.38 Q 274.5 258.79 270.76 260.87 Q 267.02 262.94 267.02 267.43 Z M 281.5 255.94 L 281.5 252.47 Q 281.5 246.69 280.18 244.07 Q 278.85 241.45 275.79 241.45 Q 272.66 241.45 270.76 243.46 Q 268.86 245.46 268.18 250.29 Q 266 250.77 264.98 250.77 Q 262.33 250.77 261.85 248.86 Q 261.85 244.24 265.86 241.52 Q 269.88 238.8 275.86 238.8 Q 282.46 238.8 285.21 241.49 Q 287.96 244.17 287.96 251.11 L 287.96 270.28 Q 287.96 271.98 288.17 273.21 L 293.54 273.89 Q 293.81 274.91 293.54 276.47 Q 288.71 276.68 283.27 277.42 Q 282.73 276.88 282.59 276.06 L 282.25 271.37 Q 276.61 277.83 269.67 277.83 Q 265.39 277.83 262.97 275.38 Q 260.56 272.94 260.56 268.79 Q 260.56 262.53 266.24 259.34 Q 271.92 256.14 281.5 255.94 Z M 324.47 252.2 Q 324.47 246.96 323.07 244.85 Q 321.68 242.74 318.41 242.74 Q 313.38 242.74 308.28 250.29 L 308.28 273 L 313.79 274.02 Q 314.06 275.11 313.79 276.74 Q 309.51 276.54 305.02 276.54 Q 301.89 276.54 296.18 276.68 Q 295.77 275.38 296.18 274.02 L 301.55 273.28 Q 301.82 269.54 301.82 264.64 L 301.82 246.01 Q 301.82 244.65 301.62 243.49 L 296.25 242.81 Q 295.97 241.79 296.25 240.23 Q 300.94 239.89 307.94 238.8 Q 308.55 239.48 308.62 240.16 Q 308.28 241.93 308.28 246.21 Q 313.65 238.8 320.39 238.8 Q 330.93 238.8 330.93 248.8 L 330.93 273 L 336.43 274.02 Q 336.71 275.11 336.43 276.74 Q 332.15 276.54 327.66 276.54 Q 324.53 276.54 318.82 276.68 Q 318.41 275.38 318.82 274.02 L 324.19 273.28 Q 324.47 269.54 324.47 264.64 Z M 351.6 251.18 L 351.6 273 L 357.1 274.02 Q 357.17 274.36 357.21 274.64 Q 357.24 274.91 357.24 275.25 Q 357.24 275.59 357.21 275.96 Q 357.17 276.34 357.1 276.74 Q 352.82 276.54 348.33 276.54 Q 346.77 276.54 344.56 276.57 Q 342.35 276.61 339.49 276.68 Q 339.29 276.06 339.29 275.38 Q 339.29 274.77 339.49 274.02 L 344.86 273.28 Q 345 271.37 345.07 269.23 Q 345.14 267.09 345.14 264.64 L 345.14 250.16 Q 345.14 245.67 344.93 243.49 L 339.56 242.81 Q 339.42 242.47 339.42 241.66 Q 339.42 241.32 339.42 240.98 Q 339.42 240.64 339.56 240.23 Q 344.18 239.96 351.26 238.8 Q 351.87 239.48 351.94 240.16 Q 351.6 242.06 351.6 251.18 Z M 341.67 226.9 Q 341.53 226.56 341.53 226.19 Q 341.53 225.81 341.53 225.47 Q 341.53 223.64 343.06 222.51 Q 344.59 221.39 346.84 221.39 Q 348.94 221.39 350.27 222.65 Q 351.6 223.91 351.6 226.08 Q 351.6 227.85 350.07 228.94 Q 348.54 230.03 346.16 230.03 Q 344.52 230.03 343.27 229.21 Q 342.01 228.4 341.67 226.9 Z M 367.69 267.43 Q 367.69 270.96 368.99 272.43 Q 370.28 273.89 373.07 273.89 Q 375.11 273.89 377.59 272.63 Q 380.07 271.37 382.18 268.99 L 382.18 258.38 Q 375.17 258.79 371.43 260.87 Q 367.69 262.94 367.69 267.43 Z M 382.18 255.94 L 382.18 252.47 Q 382.18 246.69 380.85 244.07 Q 379.53 241.45 376.47 241.45 Q 373.34 241.45 371.43 243.46 Q 369.53 245.46 368.85 250.29 Q 366.67 250.77 365.65 250.77 Q 363 250.77 362.53 248.86 Q 362.53 244.24 366.54 241.52 Q 370.55 238.8 376.53 238.8 Q 383.13 238.8 385.88 241.49 Q 388.64 244.17 388.64 251.11 L 388.64 270.28 Q 388.64 271.98 388.84 273.21 L 394.21 273.89 Q 394.49 274.91 394.21 276.47 Q 389.39 276.68 383.95 277.42 Q 383.4 276.88 383.27 276.06 L 382.93 271.37 Q 377.28 277.83 370.35 277.83 Q 366.06 277.83 363.65 275.38 Q 361.23 272.94 361.23 268.79 Q 361.23 262.53 366.91 259.34 Q 372.59 256.14 382.18 255.94 Z M 417.81 274.16 Q 422.3 274.16 424.92 269.81 Q 427.54 265.46 427.54 256.68 Q 427.54 249.95 425.05 246.42 Q 422.57 242.88 418.49 242.88 Q 412.51 242.88 408.16 248.66 L 408.16 269.81 Q 411.96 274.16 417.81 274.16 Z M 401.7 249.88 Q 401.7 245.33 401.49 243.49 L 396.12 242.81 Q 395.92 241.72 396.12 240.23 Q 400.88 239.89 407.82 238.8 Q 408.43 239.41 408.5 240.16 Q 408.16 242.54 408.16 245.19 Q 413.66 238.8 420.8 238.8 Q 426.79 238.8 430.77 243.76 Q 434.74 248.73 434.74 256.89 Q 434.74 266.34 429.54 272.09 Q 424.34 277.83 417.27 277.83 Q 412.3 277.83 408.16 274.64 L 408.16 291.3 L 415.02 292.32 Q 415.3 293.4 415.02 295.04 Q 410.74 294.83 405.57 294.83 Q 401.76 294.83 396.05 294.97 Q 395.64 293.61 396.05 292.32 L 401.42 291.57 Q 401.7 287.83 401.7 282.93 Z M 460.7 274.16 Q 465.19 274.16 467.81 269.81 Q 470.43 265.46 470.43 256.68 Q 470.43 249.95 467.95 246.42 Q 465.46 242.88 461.38 242.88 Q 455.4 242.88 451.05 248.66 L 451.05 269.81 Q 454.86 274.16 460.7 274.16 Z M 444.59 249.88 Q 444.59 245.33 444.38 243.49 L 439.01 242.81 Q 438.81 241.72 439.01 240.23 Q 443.77 239.89 450.71 238.8 Q 451.32 239.41 451.39 240.16 Q 451.05 242.54 451.05 245.19 Q 456.56 238.8 463.7 238.8 Q 469.68 238.8 473.66 243.76 Q 477.64 248.73 477.64 256.89 Q 477.64 266.34 472.43 272.09 Q 467.23 277.83 460.16 277.83 Q 455.2 277.83 451.05 274.64 L 451.05 291.3 L 457.92 292.32 Q 458.19 293.4 457.92 295.04 Q 453.63 294.83 448.46 294.83 Q 444.66 294.83 438.94 294.97 Q 438.54 293.61 438.94 292.32 L 444.32 291.57 Q 444.59 287.83 444.59 282.93 Z" style=""/>
</svg>