<?xml version="1.0" encoding="utf-8"?>
<svg viewBox="0 0 500 500" xmlns="http://www.w3.org/2000/svg">
  <defs/>
  <rect width="500" height="500" style="fill: rgb(216, 216, 216);"/>
  <path d="M 311.111 250 C 301.911 250 294.445 242.533 294.445 233.333 C 294.445 224.133 301.911 216.667 311.111 216.667 C 320.311 216.667 327.778 224.133 327.778 233.333 C 327.778 242.533 320.311 250 311.111 250 M 277.778 205.555 C 268.578 205.555 261.111 198.089 261.111 188.889 C 261.111 179.689 268.578 172.222 277.778 172.222 C 286.978 172.222 294.445 179.689 294.445 188.889 C 294.445 198.089 286.978 205.555 277.778 205.555 M 222.222 205.555 C 213.022 205.555 205.556 198.089 205.556 188.889 C 205.556 179.689 213.022 172.222 222.222 172.222 C 231.422 172.222 238.889 179.689 238.889 188.889 C 238.889 198.089 231.422 205.555 222.222 205.555 M 188.889 250 C 179.689 250 172.222 242.533 172.222 233.333 C 172.222 224.133 179.689 216.667 188.889 216.667 C 198.089 216.667 205.556 224.133 205.556 233.333 C 205.556 242.533 198.089 250 188.889 250 M 250 150 C 194.767 150 150 194.767 150 250 C 150 305.233 194.767 350 250 350 C 259.2 350 266.667 342.533 266.667 333.333 C 266.667 329 265 325.111 262.333 322.222 C 259.778 319.222 258.111 315.333 258.111 311.111 C 258.111 301.911 265.578 294.444 274.778 294.444 L 294.445 294.444 C 325.122 294.444 350 269.567 350 238.889 C 350 189.778 305.222 150 250 150 Z"/>
</svg>